<svg xmlns="http://www.w3.org/2000/svg" width="400" height="400"><rect width="400" height="400" x="0" y="0" fill="#FFFFFF" id="background"/><g transform="translate(10,10)" id="visualization"><g><rect x="375" y="32.5" height="315" width="5" fill="black"><title>65: 65</title></rect><rect x="0" y="0" height="121.15384615384615" width="5" fill="black"><title>No ruling on TRO: 25</title></rect><rect x="0" y="134.15384615384613" height="4.846153846153868" width="5" fill="black"><title>No ruling on preliminary injunction: 1</title></rect><rect x="0" y="152" height="4.846153846153868" width="5" fill="black"><title>TRO denied: 1</title></rect><rect x="0" y="169.84615384615387" height="4.846153846153868" width="5" fill="black"><title>TRO denied in part: 1</title></rect><rect x="0" y="187.69230769230774" height="155.07692307692304" width="5" fill="black"><title>TRO granted: 32</title></rect><rect x="0" y="355.7692307692308" height="24.230769230769226" width="5" fill="black"><title>TRO granted in part: 5</title></rect></g><g fill="none" stroke-opacity="1"><g style="mix-blend-mode: multiply;"><path d="M5,60.57692307692307C190,60.57692307692307,190,93.07692307692307,375,93.07692307692307" stroke="#f49278" stroke-width="121.15384615384615"/><title>No ruling on TRO → 65: 25</title></g><g style="mix-blend-mode: multiply;"><path d="M5,265.2307692307693C190,265.2307692307693,190,245.73076923076917,375,245.73076923076917" stroke="#a5f2d0" stroke-width="155.07692307692307"/><title>TRO granted → 65: 32</title></g><g style="mix-blend-mode: multiply;"><path d="M5,367.8846153846154C190,367.8846153846154,190,335.38461538461536,375,335.38461538461536" stroke="#bee199" stroke-width="24.23076923076923"/><title>TRO granted in part → 65: 5</title></g><g style="mix-blend-mode: multiply;"><path d="M5,172.2692307692308C190,172.2692307692308,190,165.76923076923075,375,165.76923076923075" stroke="#e0f3a1" stroke-width="4.846153846153846"/><title>TRO denied in part → 65: 1</title></g><g style="mix-blend-mode: multiply;"><path d="M5,154.42307692307693C190,154.42307692307693,190,160.9230769230769,375,160.9230769230769" stroke="#fedd8d" stroke-width="4.846153846153846"/><title>TRO denied → 65: 1</title></g><g style="mix-blend-mode: multiply;"><path d="M5,136.57692307692307C190,136.57692307692307,190,156.07692307692307,375,156.07692307692307" stroke="#e6b6a8" stroke-width="4.846153846153846"/><title>No ruling on preliminary injunction → 65: 1</title></g></g><g><text x="371" y="190" text-anchor="end"><tspan alignment-baseline="middle" x="371" style="font-family: Arial, sans-serif; font-size: 10px; fill: black; font-weight: bold;">65</tspan></text><text x="9" y="60.57692307692307" text-anchor="start"><tspan alignment-baseline="middle" x="9" style="font-family: Arial, sans-serif; font-size: 10px; fill: black; font-weight: bold;">No ruling on TRO</tspan></text><text x="9" y="136.57692307692307" text-anchor="start"><tspan alignment-baseline="middle" x="9" style="font-family: Arial, sans-serif; font-size: 10px; fill: black; font-weight: bold;">No ruling on preliminary injunction</tspan></text><text x="9" y="154.42307692307693" text-anchor="start"><tspan alignment-baseline="middle" x="9" style="font-family: Arial, sans-serif; font-size: 10px; fill: black; font-weight: bold;">TRO denied</tspan></text><text x="9" y="172.2692307692308" text-anchor="start"><tspan alignment-baseline="middle" x="9" style="font-family: Arial, sans-serif; font-size: 10px; fill: black; font-weight: bold;">TRO denied in part</tspan></text><text x="9" y="265.2307692307693" text-anchor="start"><tspan alignment-baseline="middle" x="9" style="font-family: Arial, sans-serif; font-size: 10px; fill: black; font-weight: bold;">TRO granted</tspan></text><text x="9" y="367.88461538461536" text-anchor="start"><tspan alignment-baseline="middle" x="9" style="font-family: Arial, sans-serif; font-size: 10px; fill: black; font-weight: bold;">TRO granted in part</tspan></text></g><g><text x="377.5" y="28.5" text-anchor="middle" style="font-family: Arial, sans-serif; font-size: 12px; fill: rgb(123, 123, 123); font-weight: bold;">Case Submitted</text><text x="2.5" y="-4" text-anchor="middle" style="font-family: Arial, sans-serif; font-size: 12px; fill: rgb(123, 123, 123); font-weight: bold;">TRO?</text></g></g></svg>